<?xml version="1.0" encoding="utf-8"?>
<!-- Generator: Adobe Illustrator 24.0.3, SVG Export Plug-In . SVG Version: 6.00 Build 0)  -->
<svg version="1.1" id="Capa_1" xmlns="http://www.w3.org/2000/svg" xmlns:xlink="http://www.w3.org/1999/xlink" x="0px" y="0px"
	 viewBox="0 0 73.4 57.7" style="enable-background:new 0 0 73.4 57.7;" xml:space="preserve">
<style type="text/css">
	.st0{fill:#FFFFFF;}
</style>
<g>
	<rect x="13.1" y="27.1" class="st0" width="4.3" height="1.3"/>
	<rect x="13.1" y="25" class="st0" width="4.3" height="1.3"/>
	<rect x="7.5" y="25" class="st0" width="4.3" height="1.3"/>
	<rect x="13.1" y="22.8" class="st0" width="4.3" height="1.3"/>
	<rect x="13.1" y="20.6" class="st0" width="4.3" height="1.3"/>
	<rect x="18.4" y="27.1" class="st0" width="4.3" height="1.3"/>
	<rect x="18.4" y="25" class="st0" width="4.3" height="1.3"/>
	<rect x="18.4" y="22.8" class="st0" width="4.3" height="1.3"/>
	<rect x="18.4" y="20.6" class="st0" width="4.3" height="1.3"/>
	<rect x="18.4" y="18.5" class="st0" width="4.3" height="1.3"/>
	<rect x="18.4" y="16.3" class="st0" width="4.3" height="1.3"/>
	<rect x="23.7" y="27.1" class="st0" width="4.3" height="1.3"/>
	<rect x="23.7" y="25" class="st0" width="4.3" height="1.3"/>
	<rect x="23.7" y="22.8" class="st0" width="4.3" height="1.3"/>
	<rect x="23.7" y="20.6" class="st0" width="4.3" height="1.3"/>
	<rect x="23.7" y="18.5" class="st0" width="4.3" height="1.3"/>
	<rect x="23.7" y="16.3" class="st0" width="4.3" height="1.3"/>
	<rect x="23.7" y="14.2" class="st0" width="4.3" height="1.3"/>
	<rect x="23.7" y="12" class="st0" width="4.3" height="1.3"/>
	<rect x="23.7" y="9.8" class="st0" width="4.3" height="1.3"/>
	<rect x="23.7" y="7.7" class="st0" width="4.3" height="1.3"/>
	<rect x="29" y="27.1" class="st0" width="4.3" height="1.3"/>
	<rect x="29" y="25" class="st0" width="4.3" height="1.3"/>
	<rect x="29" y="22.8" class="st0" width="4.3" height="1.3"/>
	<rect x="29" y="20.6" class="st0" width="4.3" height="1.3"/>
	<rect x="29" y="18.5" class="st0" width="4.3" height="1.3"/>
	<rect x="29" y="16.3" class="st0" width="4.3" height="1.3"/>
	<rect x="29" y="14.2" class="st0" width="4.3" height="1.3"/>
	<rect x="29" y="12" class="st0" width="4.3" height="1.3"/>
	<rect x="29" y="9.8" class="st0" width="4.3" height="1.3"/>
	<rect x="29" y="7.7" class="st0" width="4.3" height="1.3"/>
	<rect x="29" y="5.5" class="st0" width="4.3" height="1.3"/>
	<rect x="29" y="3.3" class="st0" width="4.3" height="1.3"/>
	<rect x="29" y="1.2" class="st0" width="4.3" height="1.3"/>
	<rect x="34.3" y="27.1" class="st0" width="4.3" height="1.3"/>
	<rect x="34.3" y="25" class="st0" width="4.3" height="1.3"/>
	<rect x="34.3" y="22.8" class="st0" width="4.3" height="1.3"/>
	<rect x="34.3" y="20.6" class="st0" width="4.3" height="1.3"/>
	<rect x="34.3" y="18.5" class="st0" width="4.3" height="1.3"/>
	<rect x="34.3" y="16.3" class="st0" width="4.3" height="1.3"/>
	<rect x="34.3" y="14.2" class="st0" width="4.3" height="1.3"/>
	<rect x="34.3" y="12" class="st0" width="4.3" height="1.3"/>
	<rect x="39.7" y="27.1" class="st0" width="4.3" height="1.3"/>
	<rect x="39.7" y="25" class="st0" width="4.3" height="1.3"/>
	<rect x="39.7" y="22.8" class="st0" width="4.3" height="1.3"/>
	<rect x="39.7" y="20.6" class="st0" width="4.3" height="1.3"/>
	<rect x="39.7" y="18.5" class="st0" width="4.3" height="1.3"/>
	<rect x="39.7" y="16.3" class="st0" width="4.3" height="1.3"/>
	<rect x="39.7" y="14.2" class="st0" width="4.3" height="1.3"/>
	<rect x="39.7" y="12" class="st0" width="4.3" height="1.3"/>
	<rect x="39.7" y="9.8" class="st0" width="4.3" height="1.3"/>
	<rect x="39.7" y="7.7" class="st0" width="4.3" height="1.3"/>
	<rect x="39.7" y="5.5" class="st0" width="4.3" height="1.3"/>
	<rect x="45" y="27.1" class="st0" width="4.3" height="1.3"/>
	<rect x="45" y="25" class="st0" width="4.3" height="1.3"/>
	<rect x="45" y="22.8" class="st0" width="4.3" height="1.3"/>
	<rect x="45" y="20.6" class="st0" width="4.3" height="1.3"/>
	<rect x="45" y="18.5" class="st0" width="4.3" height="1.3"/>
	<rect x="45" y="16.3" class="st0" width="4.3" height="1.3"/>
	<rect x="50.3" y="27.1" class="st0" width="4.3" height="1.3"/>
	<rect x="50.3" y="25" class="st0" width="4.3" height="1.3"/>
	<rect x="50.3" y="22.8" class="st0" width="4.3" height="1.3"/>
	<rect x="50.3" y="20.6" class="st0" width="4.3" height="1.3"/>
	<rect x="50.3" y="18.5" class="st0" width="4.3" height="1.3"/>
	<rect x="50.3" y="16.3" class="st0" width="4.3" height="1.3"/>
	<rect x="50.3" y="14.2" class="st0" width="4.3" height="1.3"/>
	<rect x="50.3" y="12" class="st0" width="4.3" height="1.3"/>
	<rect x="50.3" y="9.8" class="st0" width="4.3" height="1.3"/>
	<rect x="55.6" y="27.1" class="st0" width="4.3" height="1.3"/>
	<rect x="61" y="27.1" class="st0" width="4.3" height="1.3"/>
	<rect x="66.5" y="27.1" class="st0" width="4.3" height="1.3"/>
	<rect x="2.1" y="27.1" class="st0" width="4.3" height="1.3"/>
	<rect x="7.5" y="27.1" class="st0" width="4.3" height="1.3"/>
	<rect x="55.6" y="25" class="st0" width="4.3" height="1.3"/>
	<rect x="55.6" y="22.8" class="st0" width="4.3" height="1.3"/>
	<rect x="61" y="25" class="st0" width="4.3" height="1.3"/>
	<rect x="61" y="22.8" class="st0" width="4.3" height="1.3"/>
</g>
<g>
	<g>
		<path class="st0" d="M14.3,44.3h-1.6c0.3-0.4,0.7-1,1.2-1.8l-5.4-1.9c-0.6,0.9-1.1,1.6-1.7,1.9c-0.5,0.3-1.2,0.5-2,0.5
			c-0.7,0-1.4-0.2-2-0.7c-0.6-0.5-0.9-1.1-0.9-1.8h11.8c-0.1-2.7-0.5-4.7-1.1-6.1c-0.5-1.1-1.4-2.1-2.7-3.2h4.4V44.3z M6.9,36.3H2
			c0.1-0.5,0.5-0.9,0.9-1.2c0.4-0.3,0.9-0.4,1.5-0.4c0.6,0,1.1,0.1,1.5,0.4C6.4,35.3,6.7,35.7,6.9,36.3z"/>
		<path class="st0" d="M28.4,44.3H14.2v-13H16c0,0,1.3,3.5,3.9,10.5h6.2l2.3-6.1V44.3z M23.7,31.3l-0.6,2.3l-0.7-2.3H23.7z"/>
		<path class="st0" d="M42.6,44.3H41c0.3-0.4,0.7-1,1.2-1.8l-5.4-1.9c-0.6,0.9-1.1,1.6-1.7,1.9c-0.5,0.3-1.2,0.5-2,0.5
			c-0.7,0-1.4-0.2-2-0.7c-0.6-0.5-0.9-1.1-0.9-1.8H42c-0.1-2.7-0.5-4.7-1.1-6.1c-0.5-1.1-1.4-2.1-2.7-3.2h4.4V44.3z M35.2,36.3h-4.9
			c0.1-0.5,0.5-0.9,0.9-1.2c0.4-0.3,0.9-0.4,1.5-0.4c0.6,0,1.1,0.1,1.5,0.4C34.7,35.3,35,35.7,35.2,36.3z"/>
		<path class="st0" d="M56.8,33.5c-0.6-0.4-1.2-0.6-1.8-0.7c-0.5-0.1-1.2-0.2-2-0.2c-1.5,0-2.9,0.3-4.2,0.9v-0.5h-6.3v-1.8h14.3
			V33.5z M52.3,44.3h-3.5v-4.5c0-0.6,0.1-1.1,0.4-1.5c0.3-0.3,0.8-0.5,1.4-0.5c0.6,0,1.1,0.2,1.3,0.5c0.2,0.3,0.3,0.7,0.3,1.4V44.3z
			"/>
		<path class="st0" d="M61.5,44.3h-4.9v-13h4.9v1.6h-2.5v4.4h2.5V44.3z M70.9,32.9h-2.7v-1.6h2.7V32.9z M70.9,44.3h-2.7v-7h2.7V44.3
			z"/>
	</g>
</g>
<g>
	<path class="st0" d="M2.1,48.4h2.6c0.8,0,1.5,0.2,2,0.6c0.5,0.4,0.7,1,0.7,1.8c0,0.9-0.3,1.5-0.8,2c-0.5,0.5-1.3,0.7-2.1,0.7H3v4.3
		H2.1V48.4z M3,49.2v3.6h1.4c0.6,0,1.1-0.2,1.5-0.5c0.4-0.3,0.5-0.8,0.5-1.4c0-0.5-0.2-0.9-0.5-1.2c-0.3-0.3-0.7-0.4-1.3-0.4H3z"/>
	<path class="st0" d="M11.3,48.4h2.3c0.8,0,1.5,0.2,2,0.6c0.5,0.4,0.8,1,0.8,1.7c0,0.6-0.2,1.1-0.5,1.5c-0.3,0.4-0.8,0.8-1.5,1
		c0.5,0.1,0.8,0.3,1,0.6c0.2,0.3,0.4,0.7,0.5,1.3l0.6,2.8h-1l-0.4-2.3c-0.1-0.7-0.3-1.3-0.6-1.6c-0.3-0.3-0.7-0.5-1.3-0.5h-1v4.4
		h-0.9V48.4z M12.2,49.2v3.6h1c0.7,0,1.2-0.2,1.6-0.5c0.4-0.4,0.6-0.8,0.6-1.5c0-0.5-0.1-0.9-0.4-1.2c-0.3-0.3-0.7-0.4-1.3-0.4H12.2
		z"/>
	<path class="st0" d="M23.1,48.3c0.9,0,1.7,0.4,2.2,1.3s0.9,2.1,0.9,3.7c0,1.4-0.3,2.6-0.9,3.5s-1.3,1.3-2.2,1.3
		c-0.9,0-1.7-0.4-2.3-1.3c-0.6-0.9-0.9-2-0.9-3.6c0-1.5,0.3-2.8,0.8-3.7C21.4,48.7,22.2,48.3,23.1,48.3z M23.2,49.1
		c-0.8,0-1.3,0.4-1.7,1.2c-0.4,0.8-0.5,1.8-0.5,3.1c0,1.2,0.2,2.1,0.6,2.8c0.4,0.7,0.9,1.1,1.6,1.1c0.7,0,1.2-0.4,1.6-1.1
		s0.6-1.7,0.6-3c0-1.4-0.2-2.4-0.6-3.1C24.2,49.4,23.8,49.1,23.2,49.1z"/>
	<path class="st0" d="M30.1,48.4h2.2c1.1,0,1.9,0.4,2.5,1.2c0.5,0.8,0.8,2,0.8,3.6c0,0.9-0.1,1.7-0.4,2.4c-0.2,0.7-0.6,1.3-1.1,1.7
		c-0.5,0.4-1.1,0.6-1.8,0.6h-2.2V48.4z M31,49.2v7.9h1.3c0.8,0,1.4-0.3,1.8-1s0.5-1.7,0.5-3.1c0-1.2-0.2-2.1-0.6-2.8
		c-0.4-0.6-1-1-1.8-1H31z"/>
	<path class="st0" d="M39.4,48.4h0.9v6.9c0,0.6,0.1,1.1,0.4,1.5c0.3,0.4,0.7,0.5,1.2,0.5c0.5,0,0.9-0.2,1.2-0.5
		c0.3-0.3,0.4-0.8,0.4-1.5v-6.9h0.9v6.9c0,0.9-0.2,1.5-0.7,2.1c-0.5,0.5-1.1,0.8-1.9,0.8c-0.8,0-1.4-0.3-1.9-0.8
		c-0.5-0.5-0.7-1.3-0.7-2.2V48.4z"/>
	<path class="st0" d="M53.2,57.5c-0.6,0.4-1.2,0.6-1.8,0.6c-0.7,0-1.2-0.2-1.7-0.7c-0.5-0.4-0.8-1-1.1-1.8c-0.2-0.8-0.3-1.6-0.3-2.5
		c0-1.4,0.3-2.6,0.9-3.5c0.6-0.9,1.4-1.4,2.3-1.4c0.6,0,1.1,0.2,1.7,0.6v1.1c-0.6-0.6-1.2-0.8-1.7-0.8c-0.7,0-1.2,0.4-1.7,1.1
		c-0.4,0.7-0.6,1.8-0.6,3.1c0,1.1,0.2,2.1,0.6,2.8c0.4,0.7,0.9,1.1,1.6,1.1c0.5,0,1.1-0.3,1.7-0.9V57.5z"/>
	<path class="st0" d="M57,48.4h4.6v0.8h-3.7v3.4h3.5v0.8h-3.5v3.8h3.7v0.8H57V48.4z"/>
	<path class="st0" d="M65.7,48.4H68c0.8,0,1.5,0.2,2,0.6c0.5,0.4,0.8,1,0.8,1.7c0,0.6-0.2,1.1-0.5,1.5c-0.3,0.4-0.8,0.8-1.5,1
		c0.5,0.1,0.8,0.3,1,0.6c0.2,0.3,0.4,0.7,0.5,1.3l0.6,2.8h-1l-0.4-2.3c-0.1-0.7-0.3-1.3-0.6-1.6c-0.3-0.3-0.7-0.5-1.3-0.5h-1v4.4
		h-0.9V48.4z M66.6,49.2v3.6h0.9c0.7,0,1.2-0.2,1.6-0.5c0.4-0.4,0.6-0.8,0.6-1.5c0-0.5-0.1-0.9-0.4-1.2c-0.3-0.3-0.7-0.4-1.3-0.4
		H66.6z"/>
</g>
</svg>
